<svg width="292" height="48" viewBox="0 0 292 48" fill="none" xmlns="http://www.w3.org/2000/svg">
<path d="M7.456 12.536V35H1.984V12.536H7.456ZM36.8615 12.536V35H31.3895V21.528L26.3655 35H21.9495L16.8935 21.496V35H11.4215V12.536H17.8855L24.1895 28.088L30.4295 12.536H36.8615ZM66.2365 12.536V35H60.7645V21.528L55.7405 35H51.3245L46.2685 21.496V35H40.7965V12.536H47.2605L53.5645 28.088L59.8045 12.536H66.2365ZM89.206 12.536V35H83.734V12.536H89.206ZM115.956 16.952C118.174 16.952 119.934 17.624 121.236 18.968C122.558 20.312 123.22 22.1787 123.22 24.568V35H117.78V25.304C117.78 24.152 117.47 23.2667 116.852 22.648C116.254 22.008 115.422 21.688 114.356 21.688C113.289 21.688 112.446 22.008 111.828 22.648C111.23 23.2667 110.932 24.152 110.932 25.304V35H105.492V25.304C105.492 24.152 105.182 23.2667 104.564 22.648C103.966 22.008 103.134 21.688 102.068 21.688C101.001 21.688 100.158 22.008 99.5395 22.648C98.9422 23.2667 98.6435 24.152 98.6435 25.304V35H93.1715V17.144H98.6435V19.384C99.1982 18.6373 99.9235 18.0507 100.82 17.624C101.716 17.176 102.729 16.952 103.86 16.952C105.204 16.952 106.398 17.24 107.444 17.816C108.51 18.392 109.342 19.2133 109.94 20.28C110.558 19.2987 111.401 18.4987 112.468 17.88C113.534 17.2613 114.697 16.952 115.956 16.952ZM132.519 19.672C133.052 18.84 133.788 18.168 134.727 17.656C135.665 17.144 136.764 16.888 138.023 16.888C139.495 16.888 140.828 17.2613 142.023 18.008C143.217 18.7547 144.156 19.8213 144.839 21.208C145.543 22.5947 145.895 24.2053 145.895 26.04C145.895 27.8747 145.543 29.496 144.839 30.904C144.156 32.2907 143.217 33.368 142.023 34.136C140.828 34.8827 139.495 35.256 138.023 35.256C136.785 35.256 135.687 35 134.727 34.488C133.788 33.976 133.052 33.3147 132.519 32.504V43.512H127.047V17.144H132.519V19.672ZM140.327 26.04C140.327 24.6747 139.943 23.608 139.175 22.84C138.428 22.0507 137.5 21.656 136.391 21.656C135.303 21.656 134.375 22.0507 133.607 22.84C132.86 23.6293 132.487 24.7067 132.487 26.072C132.487 27.4373 132.86 28.5147 133.607 29.304C134.375 30.0933 135.303 30.488 136.391 30.488C137.479 30.488 138.407 30.0933 139.175 29.304C139.943 28.4933 140.327 27.4053 140.327 26.04ZM147.677 26.04C147.677 24.2053 148.019 22.5947 148.701 21.208C149.405 19.8213 150.355 18.7547 151.549 18.008C152.744 17.2613 154.077 16.888 155.549 16.888C156.808 16.888 157.907 17.144 158.845 17.656C159.805 18.168 160.541 18.84 161.053 19.672V17.144H166.525V35H161.053V32.472C160.52 33.304 159.773 33.976 158.813 34.488C157.875 35 156.776 35.256 155.517 35.256C154.067 35.256 152.744 34.8827 151.549 34.136C150.355 33.368 149.405 32.2907 148.701 30.904C148.019 29.496 147.677 27.8747 147.677 26.04ZM161.053 26.072C161.053 24.7067 160.669 23.6293 159.901 22.84C159.155 22.0507 158.237 21.656 157.149 21.656C156.061 21.656 155.133 22.0507 154.365 22.84C153.619 23.608 153.245 24.6747 153.245 26.04C153.245 27.4053 153.619 28.4933 154.365 29.304C155.133 30.0933 156.061 30.488 157.149 30.488C158.237 30.488 159.155 30.0933 159.901 29.304C160.669 28.5147 161.053 27.4373 161.053 26.072ZM169.396 26.072C169.396 24.216 169.769 22.5947 170.516 21.208C171.284 19.8213 172.34 18.7547 173.684 18.008C175.049 17.2613 176.607 16.888 178.356 16.888C180.596 16.888 182.463 17.4747 183.956 18.648C185.471 19.8213 186.463 21.4747 186.932 23.608H181.108C180.617 22.2427 179.668 21.56 178.26 21.56C177.257 21.56 176.457 21.9547 175.86 22.744C175.263 23.512 174.964 24.6213 174.964 26.072C174.964 27.5227 175.263 28.6427 175.86 29.432C176.457 30.2 177.257 30.584 178.26 30.584C179.668 30.584 180.617 29.9013 181.108 28.536H186.932C186.463 30.6267 185.471 32.2693 183.956 33.464C182.441 34.6587 180.575 35.256 178.356 35.256C176.607 35.256 175.049 34.8827 173.684 34.136C172.34 33.3893 171.284 32.3227 170.516 30.936C169.769 29.5493 169.396 27.928 169.396 26.072ZM199.811 30.36V35H197.027C195.043 35 193.496 34.52 192.387 33.56C191.278 32.5787 190.723 30.9893 190.723 28.792V21.688H188.547V17.144H190.723V12.792H196.195V17.144H199.779V21.688H196.195V28.856C196.195 29.3893 196.323 29.7733 196.579 30.008C196.835 30.2427 197.262 30.36 197.859 30.36H199.811ZM235.08 12.536V35H229.608V21.528L224.584 35H220.168L215.112 21.496V35H209.64V12.536H216.104L222.408 28.088L228.648 12.536H235.08ZM237.927 26.04C237.927 24.2053 238.269 22.5947 238.951 21.208C239.655 19.8213 240.605 18.7547 241.799 18.008C242.994 17.2613 244.327 16.888 245.799 16.888C247.058 16.888 248.157 17.144 249.095 17.656C250.055 18.168 250.791 18.84 251.303 19.672V17.144H256.775V35H251.303V32.472C250.77 33.304 250.023 33.976 249.063 34.488C248.125 35 247.026 35.256 245.767 35.256C244.317 35.256 242.994 34.8827 241.799 34.136C240.605 33.368 239.655 32.2907 238.951 30.904C238.269 29.496 237.927 27.8747 237.927 26.04ZM251.303 26.072C251.303 24.7067 250.919 23.6293 250.151 22.84C249.405 22.0507 248.487 21.656 247.399 21.656C246.311 21.656 245.383 22.0507 244.615 22.84C243.869 23.608 243.495 24.6747 243.495 26.04C243.495 27.4053 243.869 28.4933 244.615 29.304C245.383 30.0933 246.311 30.488 247.399 30.488C248.487 30.488 249.405 30.0933 250.151 29.304C250.919 28.5147 251.303 27.4373 251.303 26.072ZM270.686 30.36V35H267.902C265.918 35 264.371 34.52 263.262 33.56C262.153 32.5787 261.598 30.9893 261.598 28.792V21.688H259.422V17.144H261.598V12.792H267.07V17.144H270.654V21.688H267.07V28.856C267.07 29.3893 267.198 29.7733 267.454 30.008C267.71 30.2427 268.137 30.36 268.734 30.36H270.686ZM290.566 25.784C290.566 26.296 290.534 26.8293 290.47 27.384H278.086C278.171 28.4933 278.523 29.3467 279.142 29.944C279.782 30.52 280.561 30.808 281.478 30.808C282.843 30.808 283.793 30.232 284.326 29.08H290.15C289.851 30.2533 289.307 31.3093 288.518 32.248C287.75 33.1867 286.779 33.9227 285.606 34.456C284.433 34.9893 283.121 35.256 281.67 35.256C279.921 35.256 278.363 34.8827 276.998 34.136C275.633 33.3893 274.566 32.3227 273.798 30.936C273.03 29.5493 272.646 27.928 272.646 26.072C272.646 24.216 273.019 22.5947 273.766 21.208C274.534 19.8213 275.601 18.7547 276.966 18.008C278.331 17.2613 279.899 16.888 281.67 16.888C283.398 16.888 284.934 17.2507 286.278 17.976C287.622 18.7013 288.667 19.736 289.414 21.08C290.182 22.424 290.566 23.992 290.566 25.784ZM284.966 24.344C284.966 23.4053 284.646 22.6587 284.006 22.104C283.366 21.5493 282.566 21.272 281.606 21.272C280.689 21.272 279.91 21.5387 279.27 22.072C278.651 22.6053 278.267 23.3627 278.118 24.344H284.966Z" fill="black"/>
</svg>
